<svg width="28" height="28" viewBox="0 0 28 28" fill="none" xmlns="http://www.w3.org/2000/svg">
<path d="M7.10275 10.0334C6.4343 10.0334 5.86119 9.79541 5.38341 9.31941C4.90564 8.84339 4.66675 8.27117 4.66675 7.60275C4.66675 6.9343 4.90475 6.36119 5.38075 5.88341C5.85677 5.40564 6.42899 5.16675 7.09741 5.16675C7.76586 5.16675 8.33897 5.40475 8.81675 5.88075C9.29453 6.35677 9.53341 6.92899 9.53341 7.59741C9.53341 8.26586 9.29541 8.83897 8.81941 9.31675C8.34339 9.79453 7.77117 10.0334 7.10275 10.0334ZM4.19425 27.3334C3.79814 27.3334 3.44453 27.2056 3.13341 26.9501C2.8223 26.6945 2.66675 26.3779 2.66675 26.0001C2.11675 26.0001 1.64591 25.8042 1.25425 25.4126C0.862581 25.0209 0.666748 24.5501 0.666748 24.0001V15.3334H4.66675V14.4069C4.66675 13.6246 4.94453 12.9556 5.50008 12.4001C6.05564 11.8445 6.72651 11.5667 7.51271 11.5667C7.92651 11.5667 8.3223 11.6445 8.70008 11.8001C9.07786 11.9556 9.41119 12.189 9.70008 12.5001L11.4334 14.4667C11.589 14.6445 11.7501 14.8056 11.9167 14.9501C12.0834 15.0945 12.2556 15.2223 12.4334 15.3334H22.0001V4.20008C22.0001 3.77917 21.8612 3.41838 21.5834 3.11771C21.3056 2.81707 20.9556 2.66675 20.5334 2.66675C20.3138 2.66675 20.1034 2.68897 19.902 2.73341C19.7007 2.77786 19.5223 2.87786 19.3667 3.03341L17.6334 4.76675C17.7445 5.14453 17.7612 5.52786 17.6834 5.91675C17.6056 6.30564 17.4667 6.67786 17.2667 7.03341L13.8667 3.80008C14.232 3.55721 14.6233 3.40206 15.0406 3.33461C15.458 3.26715 15.8667 3.31119 16.2667 3.46675L18.0001 1.76675C18.3334 1.43341 18.7172 1.16675 19.1514 0.966748C19.5856 0.766748 20.0463 0.666748 20.5334 0.666748C21.5065 0.666748 22.3276 1.01119 22.9966 1.70008C23.6656 2.38897 24.0001 3.2223 24.0001 4.20008V15.3334H27.3334V24.0001C27.3334 24.5501 27.1376 25.0209 26.7459 25.4126C26.3542 25.8042 25.8834 26.0001 25.3334 26.0001C25.3334 26.3779 25.1779 26.6945 24.8667 26.9501C24.5556 27.2056 24.189 27.3334 23.7667 27.3334H4.19425ZM2.66675 24.0001H25.3334V17.3334H2.66675V24.0001Z" fill="white"/>
</svg>
