<svg width="14" height="14" viewBox="0 0 14 14" fill="none" xmlns="http://www.w3.org/2000/svg">
<path d="M1.375 13.75C1.075 13.75 0.8125 13.6375 0.5875 13.4125C0.3625 13.1875 0.25 12.925 0.25 12.625V1.375C0.25 1.075 0.3625 0.8125 0.5875 0.5875C0.8125 0.3625 1.075 0.25 1.375 0.25H6.60625V1.375H1.375V12.625H12.625V7.39375H13.75V12.625C13.75 12.925 13.6375 13.1875 13.4125 13.4125C13.1875 13.6375 12.925 13.75 12.625 13.75H1.375ZM5.1625 9.64375L4.375 8.8375L11.8375 1.375H7.73125V0.25H13.75V6.26875H12.625V2.18125L5.1625 9.64375Z" fill="#9F8772"/>
</svg>
