<svg width="29" height="27" viewBox="0 0 29 27" fill="none" xmlns="http://www.w3.org/2000/svg">
<path d="M17.8666 26.9333L7.49992 23.9667V25.8667H0.333252V12.7333H10.6333L19.1333 15.9333C19.7333 16.1556 20.2388 16.5167 20.6499 17.0167C21.061 17.5167 21.2666 18.2333 21.2666 19.1667H25.0666C25.9999 19.1667 26.7777 19.5 27.3999 20.1667C28.0221 20.8333 28.3333 21.7333 28.3333 22.8667V23.7333L17.8666 26.9333ZM2.33325 23.8667H5.46659V14.7333H2.33325V23.8667ZM17.7333 24.8667L26.2666 22.2667C26.1333 21.8444 25.9666 21.5556 25.7666 21.4C25.5666 21.2444 25.3333 21.1667 25.0666 21.1667H18.1666C17.4999 21.1667 16.8833 21.1222 16.3166 21.0333C15.7499 20.9444 15.211 20.8222 14.6999 20.6667L11.9999 19.8333L12.7333 17.9L15.1666 18.7C15.7221 18.8778 16.2499 19 16.7499 19.0667C17.2499 19.1333 18.0444 19.1667 19.1333 19.1667C19.1333 18.8778 19.0833 18.6111 18.9833 18.3667C18.8833 18.1222 18.711 17.9444 18.4666 17.8333L10.2999 14.7333H7.49992V21.8667L17.7333 24.8667ZM18.6666 13.6333L16.6666 12.8667V11.6667C16.6666 10.4667 16.2443 9.44444 15.3997 8.6C14.555 7.75556 13.5329 7.33333 12.3333 7.33333C11.1999 7.33333 10.2666 7.66667 9.53325 8.33333C8.79992 9 8.32214 9.8 8.09992 10.7333H6.03325C6.25547 9.4 6.84436 8.25556 7.79992 7.3C8.75547 6.34444 9.93325 5.71111 11.3333 5.4V2H9.33325V0H16.3333C16.9843 0 17.5971 0.0944445 18.1716 0.283333C18.746 0.472222 19.2888 0.733333 19.7999 1.06667L18.3333 2.53333C18.0221 2.35556 17.7055 2.22222 17.3833 2.13333C17.061 2.04444 16.711 2 16.3333 2H13.3333V5.4C14.8666 5.701 16.1388 6.43736 17.1499 7.60907C18.161 8.7808 18.6666 10.1333 18.6666 11.6667V13.6333ZM24.5929 9.53333C23.9309 9.53333 23.3666 9.29833 22.8999 8.82833C22.4333 8.35833 22.1999 7.79333 22.1999 7.13333C22.1999 6.62784 22.3888 6.00147 22.7666 5.2542C23.1444 4.50696 23.7555 3.53333 24.5999 2.33333C25.4444 3.51111 26.0555 4.47778 26.4333 5.23333C26.811 5.98889 26.9999 6.62222 26.9999 7.13333C26.9999 7.79333 26.7642 8.35833 26.2929 8.82833C25.8215 9.29833 25.2548 9.53333 24.5929 9.53333Z" fill="white"/>
</svg>
