<svg width="30" height="30" viewBox="0 0 12 12" fill="none" xmlns="http://www.w3.org/2000/svg">
<path d="M5.60633 8.91675H6.48133V5.41675H5.60633V8.91675ZM5.99982 4.33758C6.1361 4.33758 6.25043 4.29286 6.34279 4.20341C6.43515 4.11397 6.48133 4.00314 6.48133 3.87091C6.48133 3.73043 6.43524 3.61267 6.34305 3.51763C6.25086 3.4226 6.13662 3.37508 6.00034 3.37508C5.86406 3.37508 5.74973 3.4226 5.65737 3.51763C5.56501 3.61267 5.51883 3.73043 5.51883 3.87091C5.51883 4.00314 5.56492 4.11397 5.65711 4.20341C5.74931 4.29286 5.86354 4.33758 5.99982 4.33758ZM6.00396 11.8334C5.1996 11.8334 4.4437 11.6803 3.73625 11.374C3.0288 11.0678 2.41015 10.6497 1.88029 10.1199C1.35043 9.59001 0.932373 8.97099 0.626123 8.26282C0.319873 7.55465 0.166748 6.79797 0.166748 5.99279C0.166748 5.1876 0.319873 4.43093 0.626123 3.72276C0.932373 3.01459 1.35043 2.398 1.88029 1.873C2.41015 1.348 3.02917 0.932373 3.73735 0.626123C4.44551 0.319873 5.20219 0.166748 6.00737 0.166748C6.81256 0.166748 7.56923 0.319873 8.2774 0.626123C8.98558 0.932373 9.60216 1.348 10.1272 1.873C10.6522 2.398 11.0678 3.01536 11.374 3.72508C11.6803 4.4348 11.8334 5.19184 11.8334 5.9962C11.8334 6.80056 11.6803 7.55646 11.374 8.26391C11.0678 8.97136 10.6522 9.58912 10.1272 10.1172C9.60216 10.6453 8.9848 11.0633 8.27508 11.3714C7.56536 11.6794 6.80832 11.8334 6.00396 11.8334ZM6.00737 10.9584C7.38307 10.9584 8.55216 10.4747 9.51466 9.50737C10.4772 8.54001 10.9584 7.36848 10.9584 5.99279C10.9584 4.61709 10.4781 3.448 9.51741 2.4855C8.55672 1.523 7.38428 1.04175 6.00008 1.04175C4.62925 1.04175 3.46015 1.52208 2.49279 2.48276C1.52543 3.44344 1.04175 4.61588 1.04175 6.00008C1.04175 7.37091 1.52543 8.54001 2.49279 9.50737C3.46015 10.4747 4.63168 10.9584 6.00737 10.9584Z" fill="#9F8772"/>
</svg>
