<svg width="24" height="30" viewBox="0 0 24 30" fill="none" xmlns="http://www.w3.org/2000/svg">
<path d="M5.94383 8.97908V4.79992H8.06883V8.97908H5.94383ZM5.94383 21.7645V14.8228H8.06883V21.7645H5.94383ZM2.79175 29.1666C2.20737 29.1666 1.70711 28.9585 1.29097 28.5424C0.874821 28.1262 0.666748 27.626 0.666748 27.0416V2.95825C0.666748 2.37388 0.874821 1.87362 1.29097 1.45747C1.70711 1.04132 2.20737 0.833252 2.79175 0.833252H21.2084C21.7928 0.833252 22.2931 1.04132 22.7092 1.45747C23.1253 1.87362 23.3334 2.37388 23.3334 2.95825V27.0416C23.3334 27.626 23.1253 28.1262 22.7092 28.5424C22.2931 28.9585 21.7928 29.1666 21.2084 29.1666H2.79175ZM2.79175 27.0416H21.2084V12.9458H2.79175V27.0416ZM2.79175 10.8208H21.2084V2.95825H2.79175V10.8208Z" fill="white"/>
</svg>
