<svg width="60" height="60" viewBox="0 0 60 60" fill="none" xmlns="http://www.w3.org/2000/svg">
<circle cx="30" cy="30" r="30" fill="#9F8772"/>
<path d="M19.8355 42.75C19.5522 42.75 19.3042 42.6437 19.0917 42.4312C18.8792 42.2188 18.773 41.9708 18.773 41.6875V40.2H18.3126C17.2304 40.2 16.3106 39.8212 15.553 39.0637C14.7955 38.3062 14.4167 37.3863 14.4167 36.3042V27.6625C14.4167 26.4583 14.7827 25.5434 15.5147 24.9177C16.2466 24.292 17.1084 23.9792 18.1001 23.9792V20.9333C18.1001 19.8472 18.4424 18.9618 19.1272 18.2771C19.8119 17.5924 20.6973 17.25 21.7834 17.25H38.2522C39.3383 17.25 40.2178 17.5924 40.8907 18.2771C41.5636 18.9618 41.9001 19.8472 41.9001 20.9333V23.9792C42.8917 23.9792 43.7536 24.292 44.4855 24.9177C45.2174 25.5434 45.5834 26.4583 45.5834 27.6625V36.3042C45.5834 37.3863 45.2047 38.3062 44.4471 39.0637C43.6896 39.8212 42.7697 40.2 41.6876 40.2H41.2272V41.6875C41.2272 41.9708 41.1209 42.2188 40.9084 42.4312C40.6959 42.6437 40.448 42.75 40.1647 42.75C39.8813 42.75 39.6334 42.6437 39.4209 42.4312C39.2084 42.2188 39.1022 41.9708 39.1022 41.6875V40.2H20.898V41.6875C20.898 41.9708 20.7917 42.2188 20.5792 42.4312C20.3667 42.6437 20.1188 42.75 19.8355 42.75ZM18.3126 38.075H41.6876C42.1598 38.075 42.573 37.8979 42.9272 37.5438C43.2813 37.1896 43.4584 36.7764 43.4584 36.3042V27.6625C43.4584 27.1903 43.3167 26.8125 43.0334 26.5292C42.7501 26.2458 42.3723 26.1042 41.9001 26.1042C41.4279 26.1042 41.0501 26.2458 40.7667 26.5292C40.4834 26.8125 40.3417 27.1903 40.3417 27.6625V33.8958H19.6584V27.6625C19.6584 27.1903 19.5167 26.8125 19.2334 26.5292C18.9501 26.2458 18.5723 26.1042 18.1001 26.1042C17.6279 26.1042 17.2501 26.2458 16.9667 26.5292C16.6834 26.8125 16.5417 27.1903 16.5417 27.6625V36.3042C16.5417 36.7764 16.7188 37.1896 17.073 37.5438C17.4272 37.8979 17.8404 38.075 18.3126 38.075ZM21.7834 31.7708H38.2167V27.6625C38.2167 26.9306 38.382 26.3226 38.7126 25.8385C39.0431 25.3545 39.3973 24.9708 39.7751 24.6875V20.9333C39.7751 20.4611 39.6334 20.0833 39.3501 19.8C39.0667 19.5167 38.692 19.375 38.2259 19.375H21.7743C21.3081 19.375 20.9334 19.5167 20.6501 19.8C20.3667 20.0833 20.2251 20.4611 20.2251 20.9333V24.6875C20.6029 24.9708 20.957 25.3545 21.2876 25.8385C21.6181 26.3226 21.7834 26.9306 21.7834 27.6625V31.7708Z" fill="white"/>
</svg>
