[<svg width="34" height="34" viewBox="0 0 34 34" fill="none" xmlns="http://www.w3.org/2000/svg">
<path d="M5.41875 33.5C5.13542 33.5 4.8875 33.3937 4.675 33.1812C4.4625 32.9687 4.35625 32.7208 4.35625 32.4375V30.95H3.89583C2.81367 30.95 1.89381 30.5712 1.13627 29.8137C0.378758 29.0562 0 28.1363 0 27.0542V18.4125C0 17.2083 0.365972 16.2934 1.09792 15.6677C1.82986 15.042 2.69167 14.7292 3.68333 14.7292V11.6833C3.68333 10.5972 4.02569 9.71181 4.71042 9.02708C5.39514 8.34236 6.28056 8 7.36667 8H23.8354C24.9215 8 25.801 8.34236 26.474 9.02708C27.1469 9.71181 27.4833 10.5972 27.4833 11.6833V14.7292C28.475 14.7292 29.3368 15.042 30.0688 15.6677C30.8007 16.2934 31.1667 17.2083 31.1667 18.4125V27.0542C31.1667 28.1363 30.7879 29.0562 30.0304 29.8137C29.2729 30.5712 28.353 30.95 27.2708 30.95H26.8104V32.4375C26.8104 32.7208 26.7042 32.9687 26.4917 33.1812C26.2792 33.3937 26.0313 33.5 25.7479 33.5C25.4646 33.5 25.2167 33.3937 25.0042 33.1812C24.7917 32.9687 24.6854 32.7208 24.6854 32.4375V30.95H6.48125V32.4375C6.48125 32.7208 6.375 32.9687 6.1625 33.1812C5.95 33.3937 5.70208 33.5 5.41875 33.5ZM3.89583 28.825H27.2708C27.7431 28.825 28.1562 28.6479 28.5104 28.2938C28.8646 27.9396 29.0417 27.5264 29.0417 27.0542V18.4125C29.0417 17.9403 28.9 17.5625 28.6167 17.2792C28.3333 16.9958 27.9556 16.8542 27.4833 16.8542C27.0111 16.8542 26.6333 16.9958 26.35 17.2792C26.0667 17.5625 25.925 17.9403 25.925 18.4125V24.6458H5.24167V18.4125C5.24167 17.9403 5.1 17.5625 4.81667 17.2792C4.53333 16.9958 4.15556 16.8542 3.68333 16.8542C3.21111 16.8542 2.83333 16.9958 2.55 17.2792C2.26667 17.5625 2.125 17.9403 2.125 18.4125V27.0542C2.125 27.5264 2.30208 27.9396 2.65625 28.2938C3.01042 28.6479 3.42361 28.825 3.89583 28.825ZM7.36667 22.5208H23.8V18.4125C23.8 17.6806 23.9653 17.0726 24.2958 16.5885C24.6264 16.1045 24.9806 15.7208 25.3583 15.4375V11.6833C25.3583 11.2111 25.2167 10.8333 24.9333 10.55C24.65 10.2667 24.2753 10.125 23.8091 10.125H7.35753C6.8914 10.125 6.51667 10.2667 6.23333 10.55C5.95 10.8333 5.80833 11.2111 5.80833 11.6833V15.4375C6.18611 15.7208 6.54028 16.1045 6.87083 16.5885C7.20139 17.0726 7.36667 17.6806 7.36667 18.4125V22.5208Z" fill="white"/>
</svg>
