<svg width="34" height="30" viewBox="0 0 34 30" fill="none" xmlns="http://www.w3.org/2000/svg">
<g filter="url(#filter0_dd_236_137)">
<path d="M6.8355 25.75C6.55216 25.75 6.30425 25.6437 6.09175 25.4312C5.87925 25.2188 5.773 24.9708 5.773 24.6875V23.2H5.31258C4.23041 23.2 3.31056 22.8212 2.55302 22.0637C1.79551 21.3062 1.41675 20.3863 1.41675 19.3042V10.6625C1.41675 9.45833 1.78272 8.5434 2.51466 7.91771C3.24661 7.29201 4.10841 6.97917 5.10008 6.97917V3.93333C5.10008 2.84722 5.44244 1.96181 6.12716 1.27708C6.81189 0.592361 7.6973 0.25 8.78341 0.25H25.2522C26.3383 0.25 27.2178 0.592361 27.8907 1.27708C28.5636 1.96181 28.9001 2.84722 28.9001 3.93333V6.97917C29.8917 6.97917 30.7536 7.29201 31.4855 7.91771C32.2174 8.5434 32.5834 9.45833 32.5834 10.6625V19.3042C32.5834 20.3863 32.2047 21.3062 31.4471 22.0637C30.6896 22.8212 29.7697 23.2 28.6876 23.2H28.2272V24.6875C28.2272 24.9708 28.1209 25.2188 27.9084 25.4312C27.6959 25.6437 27.448 25.75 27.1647 25.75C26.8813 25.75 26.6334 25.6437 26.4209 25.4312C26.2084 25.2188 26.1022 24.9708 26.1022 24.6875V23.2H7.898V24.6875C7.898 24.9708 7.79175 25.2188 7.57925 25.4312C7.36675 25.6437 7.11883 25.75 6.8355 25.75ZM5.31258 21.075H28.6876C29.1598 21.075 29.573 20.8979 29.9272 20.5438C30.2813 20.1896 30.4584 19.7764 30.4584 19.3042V10.6625C30.4584 10.1903 30.3167 9.8125 30.0334 9.52917C29.7501 9.24583 29.3723 9.10417 28.9001 9.10417C28.4279 9.10417 28.0501 9.24583 27.7667 9.52917C27.4834 9.8125 27.3417 10.1903 27.3417 10.6625V16.8958H6.65841V10.6625C6.65841 10.1903 6.51675 9.8125 6.23341 9.52917C5.95008 9.24583 5.5723 9.10417 5.10008 9.10417C4.62786 9.10417 4.25008 9.24583 3.96675 9.52917C3.68341 9.8125 3.54175 10.1903 3.54175 10.6625V19.3042C3.54175 19.7764 3.71883 20.1896 4.073 20.5438C4.42716 20.8979 4.84036 21.075 5.31258 21.075ZM8.78341 14.7708H25.2167V10.6625C25.2167 9.93056 25.382 9.32257 25.7126 8.83854C26.0431 8.35451 26.3973 7.97083 26.7751 7.6875V3.93333C26.7751 3.46111 26.6334 3.08333 26.3501 2.8C26.0667 2.51667 25.692 2.375 25.2259 2.375H8.77428C8.30815 2.375 7.93341 2.51667 7.65008 2.8C7.36675 3.08333 7.22508 3.46111 7.22508 3.93333V7.6875C7.60286 7.97083 7.95703 8.35451 8.28758 8.83854C8.61814 9.32257 8.78341 9.93056 8.78341 10.6625V14.7708Z" fill="white"/>
</g>
<defs>
<filter id="filter0_dd_236_137" x="-2.58325" y="0.25" width="39.1667" height="33.5" filterUnits="userSpaceOnUse" color-interpolation-filters="sRGB">
<feFlood flood-opacity="0" result="BackgroundImageFix"/>
<feColorMatrix in="SourceAlpha" type="matrix" values="0 0 0 0 0 0 0 0 0 0 0 0 0 0 0 0 0 0 127 0" result="hardAlpha"/>
<feOffset dy="4"/>
<feGaussianBlur stdDeviation="2"/>
<feComposite in2="hardAlpha" operator="out"/>
<feColorMatrix type="matrix" values="0 0 0 0 0 0 0 0 0 0 0 0 0 0 0 0 0 0 0.25 0"/>
<feBlend mode="normal" in2="BackgroundImageFix" result="effect1_dropShadow_236_137"/>
<feColorMatrix in="SourceAlpha" type="matrix" values="0 0 0 0 0 0 0 0 0 0 0 0 0 0 0 0 0 0 127 0" result="hardAlpha"/>
<feOffset dy="4"/>
<feGaussianBlur stdDeviation="2"/>
<feComposite in2="hardAlpha" operator="out"/>
<feColorMatrix type="matrix" values="0 0 0 0 0 0 0 0 0 0 0 0 0 0 0 0 0 0 0.25 0"/>
<feBlend mode="normal" in2="effect1_dropShadow_236_137" result="effect2_dropShadow_236_137"/>
<feBlend mode="normal" in="SourceGraphic" in2="effect2_dropShadow_236_137" result="shape"/>
</filter>
</defs>
</svg>
