<svg width="23" height="32" viewBox="0 0 23 32" fill="none" xmlns="http://www.w3.org/2000/svg">
<path d="M11.6667 32C8.6223 32 6.02786 30.9278 3.88341 28.7833C1.73897 26.6389 0.666748 24.0444 0.666748 21V9C0.666748 8.15556 0.961193 7.44444 1.55008 6.86667C2.13897 6.28889 2.84453 6 3.66675 6C3.8223 6 3.98897 6.01667 4.16675 6.05C4.34453 6.08333 4.51119 6.12222 4.66675 6.16667V5C4.66675 4.15556 4.96119 3.44444 5.55008 2.86667C6.13897 2.28889 6.84453 2 7.66675 2C7.84453 2 8.02786 2.01667 8.21675 2.05C8.40564 2.08333 8.58897 2.13333 8.76675 2.2C9.01119 1.55556 9.39453 1.02778 9.91675 0.616667C10.439 0.205556 11.0223 0 11.6667 0C12.4445 0 13.139 0.283333 13.7501 0.85C14.3612 1.41667 14.6667 2.08889 14.6667 2.86667C14.7779 2.82222 14.9223 2.77778 15.1001 2.73333C15.2779 2.68889 15.4667 2.66667 15.6667 2.66667C16.5112 2.66667 17.2223 2.95556 17.8001 3.53333C18.3779 4.11111 18.6667 4.82222 18.6667 5.66667V11.1333C18.8445 11.0889 19.0279 11.0556 19.2167 11.0333C19.4056 11.0111 19.5556 11 19.6667 11C20.5112 11 21.2223 11.2889 21.8001 11.8667C22.3779 12.4444 22.6667 13.1556 22.6667 14V21C22.6667 24.0444 21.5945 26.6389 19.4501 28.7833C17.3056 30.9278 14.7112 32 11.6667 32ZM11.6667 30C12.9112 30 14.0834 29.7667 15.1834 29.3C16.2834 28.8333 17.239 28.1944 18.0501 27.3833C18.8612 26.5722 19.5001 25.6167 19.9667 24.5167C20.4334 23.4167 20.6667 22.2444 20.6667 21V14C20.6667 13.7111 20.5723 13.4722 20.3834 13.2833C20.1945 13.0944 19.9556 13 19.6667 13C19.4001 13 19.1667 13.0944 18.9667 13.2833C18.7667 13.4722 18.6667 13.7111 18.6667 14V19.6667L18.2334 19.7333C17.2334 19.8889 16.4056 20.3333 15.7501 21.0667C15.0945 21.8 14.7334 22.6667 14.6667 23.6667H12.6667C12.7334 22.4222 13.1279 21.3111 13.8501 20.3333C14.5723 19.3556 15.5112 18.6222 16.6667 18.1333V5.66667C16.6667 5.37778 16.5723 5.13889 16.3834 4.95C16.1945 4.76111 15.9556 4.66667 15.6667 4.66667C15.4001 4.66667 15.1667 4.76111 14.9667 4.95C14.7667 5.13889 14.6667 5.37778 14.6667 5.66667V14.3333H12.6667V3C12.6667 2.71111 12.5723 2.47222 12.3834 2.28333C12.1945 2.09444 11.9556 2 11.6667 2C11.4001 2 11.1667 2.09444 10.9667 2.28333C10.7667 2.47222 10.6667 2.71111 10.6667 3V14.3333H8.66675V5C8.66675 4.71111 8.5723 4.47222 8.38342 4.28333C8.19453 4.09444 7.95564 4 7.66675 4C7.40008 4 7.16675 4.09444 6.96675 4.28333C6.76675 4.47222 6.66675 4.71111 6.66675 5V15.6667H4.66675V9C4.66675 8.71111 4.5723 8.47222 4.38341 8.28333C4.19453 8.09444 3.95564 8 3.66675 8C3.40008 8 3.16675 8.09444 2.96675 8.28333C2.76675 8.47222 2.66675 8.71111 2.66675 9V21C2.66675 22.2444 2.90008 23.4167 3.36675 24.5167C3.83341 25.6167 4.4723 26.5722 5.28341 27.3833C6.09453 28.1944 7.05008 28.8333 8.15008 29.3C9.25008 29.7667 10.4223 30 11.6667 30Z" fill="white"/>
</svg>
