<svg width="26" height="26" viewBox="0 0 26 26" fill="none" xmlns="http://www.w3.org/2000/svg">
<path d="M20.0833 0.010498C21.6417 0.010498 22.9757 0.565359 24.0854 1.67508C25.1951 2.7848 25.75 4.11883 25.75 5.67716C25.75 5.93689 25.7323 6.28515 25.6969 6.72196C25.6615 7.15876 25.6083 7.6605 25.5375 8.22716L23.5896 22.5001C23.4715 23.4681 23.0465 24.2178 22.3146 24.749C21.5826 25.2803 20.8035 25.5459 19.9771 25.5459C19.4812 25.5459 18.9972 25.4397 18.525 25.2272C18.0528 25.0147 17.6514 24.6723 17.3208 24.2001L13.5312 18.6751C13.484 18.6042 13.4073 18.5452 13.301 18.498C13.1948 18.4508 13.0826 18.4272 12.9646 18.4272C12.9174 18.4272 12.7285 18.5334 12.3979 18.7459L8.71458 24.0938C8.38403 24.5897 7.97083 24.9556 7.475 25.1917C6.97917 25.4279 6.47153 25.5459 5.95208 25.5459C5.12569 25.5459 4.35243 25.2803 3.63229 24.749C2.91215 24.2178 2.49306 23.4563 2.375 22.4647L0.4625 8.22716C0.391667 7.6605 0.338542 7.15876 0.303125 6.72196C0.267708 6.28515 0.25 5.93689 0.25 5.67716C0.25 4.11883 0.804861 2.7848 1.91458 1.67508C3.02431 0.565359 4.35833 0.010498 5.91667 0.010498C6.76667 0.010498 7.44549 0.122651 7.95312 0.346956C8.46076 0.571262 8.95069 0.813276 9.42292 1.073C9.89514 1.33272 10.3969 1.57473 10.9281 1.79904C11.4594 2.02335 12.15 2.1355 13 2.1355C13.85 2.1355 14.5406 2.02335 15.0719 1.79904C15.6031 1.57473 16.1049 1.33272 16.5771 1.073C17.0493 0.813276 17.5451 0.571262 18.0646 0.346956C18.584 0.122651 19.2569 0.010498 20.0833 0.010498ZM20.0833 2.1355C19.5403 2.1355 19.0681 2.21814 18.6667 2.38341C18.2653 2.54869 17.8521 2.76119 17.4271 3.02091C16.6715 3.44591 15.9691 3.75876 15.3198 3.95946C14.6705 4.16015 13.8972 4.2605 13 4.2605C12.1028 4.2605 11.3354 4.16015 10.6979 3.95946C10.0604 3.75876 9.36389 3.44591 8.60833 3.02091C8.18333 2.76119 7.76424 2.54869 7.35104 2.38341C6.93785 2.21814 6.45972 2.1355 5.91667 2.1355C4.925 2.1355 4.08681 2.47786 3.40208 3.16258C2.71736 3.8473 2.375 4.6855 2.375 5.67716C2.375 5.86605 2.38681 6.14939 2.41042 6.52716C2.43403 6.90494 2.48125 7.34175 2.55208 7.83758L4.5 22.1459C4.54722 22.5473 4.7184 22.8542 5.01354 23.0667C5.30868 23.2792 5.62153 23.3855 5.95208 23.3855C6.16458 23.3855 6.36528 23.3324 6.55417 23.2261C6.74306 23.1199 6.90833 22.9723 7.05 22.7834L10.6271 17.5417C10.9104 17.1404 11.2646 16.8334 11.6896 16.6209C12.1146 16.4084 12.5514 16.3022 13 16.3022C13.4486 16.3022 13.8795 16.4084 14.2927 16.6209C14.7059 16.8334 15.0542 17.1404 15.3375 17.5417L18.9854 22.8897C19.1035 23.0786 19.2569 23.2143 19.4458 23.297C19.6347 23.3796 19.8236 23.4209 20.0125 23.4209C20.3431 23.4209 20.6559 23.3088 20.951 23.0845C21.2462 22.8602 21.4174 22.5709 21.4646 22.2167L23.4479 7.83758C23.5187 7.34175 23.566 6.90494 23.5896 6.52716C23.6132 6.14939 23.625 5.86605 23.625 5.67716C23.625 4.6855 23.2826 3.8473 22.5979 3.16258C21.9132 2.47786 21.075 2.1355 20.0833 2.1355Z" fill="white"/>
</svg>
