<svg width="32" height="32" viewBox="0 0 32 32" fill="none" xmlns="http://www.w3.org/2000/svg">
<path d="M15.9999 30.6667C16.5111 30.6667 17.0222 30.6333 17.5333 30.5667C18.0444 30.5 18.5555 30.4111 19.0666 30.3C20.9777 31.7889 23.1166 32.3056 25.4833 31.85C27.85 31.3944 29.6555 30.1222 30.9 28.0333C31.8777 26.3889 32.2111 24.6333 31.9 22.7667C31.5888 20.9 30.7222 19.3222 29.3 18.0333V17.9333C30.7222 16.6667 31.5833 15.1 31.8833 13.2333C32.1833 11.3667 31.8555 9.61111 30.9 7.96667C30.0777 6.56667 28.95 5.51667 27.5166 4.81667C26.0833 4.11667 24.5666 3.86667 22.9666 4.06667C22.2555 2.8 21.2833 1.80556 20.0499 1.08333C18.8166 0.361111 17.4666 0 15.9999 0C14.5333 0 13.1833 0.361111 11.9499 1.08333C10.7166 1.80556 9.74439 2.8 9.03328 4.06667C7.43328 3.86667 5.91662 4.11667 4.48328 4.81667C3.04995 5.51667 1.92217 6.56667 1.09995 7.96667C0.144393 9.61111 -0.183385 11.3667 0.116615 13.2333C0.416615 15.1 1.27773 16.6667 2.69995 17.9333V18.0333C1.27773 19.3222 0.411059 20.9 0.0999484 22.7667C-0.211163 24.6333 0.122171 26.3889 1.09995 28.0333C2.34439 30.1222 4.14995 31.3944 6.51661 31.85C8.88328 32.3056 11.0222 31.7889 12.9333 30.3C13.4444 30.4111 13.9555 30.5 14.4666 30.5667C14.9777 30.6333 15.4888 30.6667 15.9999 30.6667ZM10.3999 29.4333C9.06662 30.0778 7.67217 30.1667 6.21662 29.7C4.76106 29.2333 3.64439 28.3556 2.86662 27.0667C2.26662 26.0667 1.97773 25 1.99995 23.8667C2.02217 22.7333 2.38884 21.6889 3.09995 20.7333C3.36662 21.6889 3.72773 22.6 4.18328 23.4667C4.63884 24.3333 5.17773 25.1444 5.79995 25.9C6.42217 26.6556 7.11662 27.3278 7.88328 27.9167C8.64995 28.5056 9.48884 29.0111 10.3999 29.4333ZM21.6 29.4333C22.5111 29.0111 23.35 28.5056 24.1166 27.9167C24.8833 27.3278 25.5777 26.6556 26.2 25.9C26.8222 25.1444 27.3666 24.3333 27.8333 23.4667C28.3 22.6 28.6555 21.6889 28.9 20.7333C29.6111 21.6889 29.9777 22.7333 30 23.8667C30.0222 25 29.7333 26.0667 29.1333 27.0667C28.3555 28.3556 27.2388 29.2333 25.7833 29.7C24.3277 30.1667 22.9333 30.0778 21.6 29.4333ZM15.9999 28.6667C12.8444 28.6667 10.1666 27.5667 7.96662 25.3667C5.76661 23.1667 4.66662 20.4889 4.66662 17.3333C4.66662 14.5778 5.52217 12.1722 7.23328 10.1167C8.94439 8.06111 11.0999 6.76667 13.6999 6.23333C13.6777 6.36667 13.6666 6.49444 13.6666 6.61667V7C13.6666 9.17778 14.4277 11.0278 15.9499 12.55C17.4722 14.0722 19.3222 14.8333 21.5 14.8333C22.5 14.8333 23.4222 14.6722 24.2666 14.35C25.1111 14.0278 25.8555 13.5889 26.5 13.0333C26.7666 13.7 26.9722 14.3944 27.1166 15.1167C27.2611 15.8389 27.3333 16.5778 27.3333 17.3333C27.3333 20.4889 26.2333 23.1667 24.0333 25.3667C21.8333 27.5667 19.1555 28.6667 15.9999 28.6667ZM11.7999 20.5667C11.2888 20.5667 10.8611 20.3944 10.5166 20.05C10.1722 19.7056 9.99995 19.2778 9.99995 18.7667C9.99995 18.2556 10.1722 17.8278 10.5166 17.4833C10.8611 17.1389 11.2888 16.9667 11.7999 16.9667C12.3111 16.9667 12.7388 17.1389 13.0833 17.4833C13.4277 17.8278 13.5999 18.2556 13.5999 18.7667C13.5999 19.2778 13.4277 19.7056 13.0833 20.05C12.7388 20.3944 12.3111 20.5667 11.7999 20.5667ZM20.2333 20.5667C19.7222 20.5667 19.2944 20.3944 18.9499 20.05C18.6055 19.7056 18.4333 19.2778 18.4333 18.7667C18.4333 18.2556 18.6055 17.8278 18.9499 17.4833C19.2944 17.1389 19.7222 16.9667 20.2333 16.9667C20.7444 16.9667 21.1722 17.1389 21.5166 17.4833C21.8611 17.8278 22.0333 18.2556 22.0333 18.7667C22.0333 19.2778 21.8611 19.7056 21.5166 20.05C21.1722 20.3944 20.7444 20.5667 20.2333 20.5667ZM2.89995 14.9C2.32217 13.9444 2.02217 12.9611 1.99995 11.95C1.97773 10.9389 2.2555 9.94444 2.83328 8.96667C3.4555 7.9 4.31106 7.10556 5.39995 6.58333C6.48884 6.06111 7.63328 5.9 8.83328 6.1C8.0555 6.58889 7.34439 7.14444 6.69995 7.76667C6.0555 8.38889 5.47773 9.07778 4.96662 9.83333C4.4555 10.5889 4.02773 11.3889 3.68328 12.2333C3.33884 13.0778 3.07773 13.9667 2.89995 14.9ZM29.1 14.9C28.9222 13.9667 28.6611 13.0778 28.3166 12.2333C27.9722 11.3889 27.5444 10.5889 27.0333 9.83333C26.5222 9.07778 25.9444 8.38889 25.2999 7.76667C24.6555 7.14444 23.9444 6.58889 23.1666 6.1C24.3666 5.9 25.5111 6.06111 26.6 6.58333C27.6888 7.10556 28.5444 7.9 29.1666 8.96667C29.7444 9.94444 30.0222 10.9389 30 11.95C29.9777 12.9611 29.6777 13.9444 29.1 14.9ZM21.5 12.8333C19.9 12.8333 18.5277 12.2611 17.3833 11.1167C16.2388 9.97222 15.6666 8.6 15.6666 7C15.6666 6.82222 15.6722 6.65556 15.6833 6.5C15.6944 6.34444 15.7222 6.17778 15.7666 6H15.9999C17.0222 6 17.9944 6.12222 18.9166 6.36667C19.8388 6.61111 20.7111 6.96667 21.5333 7.43333C22.3555 7.9 23.1055 8.45556 23.7833 9.1C24.4611 9.74444 25.0555 10.4667 25.5666 11.2667C25.0777 11.7556 24.5 12.1389 23.8333 12.4167C23.1666 12.6944 22.3888 12.8333 21.5 12.8333ZM21.0666 5C20.2888 4.68889 19.4777 4.44444 18.6333 4.26667C17.7888 4.08889 16.9111 4 15.9999 4C15.0888 4 14.2111 4.08889 13.3666 4.26667C12.5222 4.44444 11.7111 4.68889 10.9333 5C11.5777 4.15556 12.3222 3.44444 13.1666 2.86667C14.0111 2.28889 14.9555 2 15.9999 2C17.0444 2 17.9888 2.28889 18.8333 2.86667C19.6777 3.44444 20.4222 4.15556 21.0666 5Z" fill="white"/>
</svg>
